<svg clip-rule="evenodd" fill-rule="evenodd" stroke-linejoin="round" stroke-miterlimit="2" viewBox="0 0 512 512" xmlns="http://www.w3.org/2000/svg"><path d="m-.00637736-.00019504h512.0004404v512.0004404h-512.0004404z" fill="none" stroke-width="3.71432"/><g fill="#1c1c1c" transform="matrix(4.04214879616 0 0 4.04214879616 -710.32772854052 -603.24284021796)"><path d="m212.165 199.974v6.532c0 23.307 10.012 36.659 30.041 40.013v24.665c-1.039.058-2.088.086-3.144.086-12.7 0-24.463-4.041-34.059-10.919v-37.499c0-11.058 2.385-18.686 7.162-22.878z"/><path d="m294.478 193.229c2.131 6.054 3.283 12.565 3.283 19.342 0 23.18-13.466 43.24-33 52.774v-18.885c19.814-3.442 29.717-16.775 29.717-39.954z"/><path d="m212.165 160.411v18.301c-19.815 3.443-29.717 16.775-29.717 39.955v9.398c-1.365-4.937-2.085-10.132-2.085-15.494 0-22.703 12.917-42.414 31.802-52.16z"/><path d="m234.72 199.707c4.994 4.123 7.486 11.843 7.486 23.145v2.614c-4.994-4.124-7.486-11.844-7.486-23.146z"/><path d="m234.72 154.05c1.432-.124 2.88-.178 4.342-.178 12.171 0 23.482 3.713 32.861 10.068v38.38c0 11.058-2.386 18.686-7.162 22.878v-6.531c0-23.308-10.013-36.66-30.041-40.014z"/></g></svg>